{"url":"https://api.github.com/repos/avinashpaliwal/Super-SloMo/issues/14","repository_url":"https://api.github.com/repos/avinashpaliwal/Super-SloMo","labels_url":"https://api.github.com/repos/avinashpaliwal/Super-SloMo/issues/14/labels{/name}","comments_url":"https://api.github.com/repos/avinashpaliwal/Super-SloMo/issues/14/comments","events_url":"https://api.github.com/repos/avinashpaliwal/Super-SloMo/issues/14/events","html_url":"https://github.com/avinashpaliwal/Super-SloMo/issues/14","id":395821989,"node_id":"MDU6SXNzdWUzOTU4MjE5ODk=","number":14,"title":"RuntimeError: CUDA error: out of memory","user":{"login":"gaowanliang","id":41822468,"node_id":"MDQ6VXNlcjQxODIyNDY4","avatar_url":"https://avatars.githubusercontent.com/u/41822468?v=4","gravatar_id":"","url":"https://api.github.com/users/gaowanliang","html_url":"https://github.com/gaowanliang","followers_url":"https://api.github.com/users/gaowanliang/followers","following_url":"https://api.github.com/users/gaowanliang/following{/other_user}","gists_url":"https://api.github.com/users/gaowanliang/gists{/gist_id}","starred_url":"https://api.github.com/users/gaowanliang/starred{/owner}{/repo}","subscriptions_url":"https://api.github.com/users/gaowanliang/subscriptions","organizations_url":"https://api.github.com/users/gaowanliang/orgs","repos_url":"https://api.github.com/users/gaowanliang/repos","events_url":"https://api.github.com/users/gaowanliang/events{/privacy}","received_events_url":"https://api.github.com/users/gaowanliang/received_events","type":"User","site_admin":false},"labels":[],"state":"closed","locked":false,"assignee":null,"assignees":[],"milestone":null,"comments":6,"created_at":"2019-01-04T06:31:50Z","updated_at":"2019-01-07T03:56:52Z","closed_at":"2019-01-07T03:56:52Z","author_association":"NONE","active_lock_reason":null,"body":"python video_to_slomo.py --ffmpeg D:\\program_data\\python\\Super-SloMo\\path\\to\\ffmp\r\neg\\bin --video D:\\program_data\\python\\Super-SloMo\\path\\to\\123.mp4 --sf 3 --checkpoint D:\\program_data\\python\\Super-SloMo\r\n\\path\\to\\checkpoint.ckpt --fps 72 --batch_size 1 --output D:\\program_data\\python\\Super-SloMo\\path\\to\\output.mp4\r\n```\r\nD:\\program_data\\python\\Super-SloMo\\path\\to\\ffmpeg\\bin\\ffmpeg -i D:\\program_data\\python\\Super-SloMo\\path\\to\\123.mp4 -vsync 0 -qscale:v 2 tmpSuperSloMo\\input/%06d.jpg\r\nffmpeg version N-91520-gbce4da85e8 Copyright (c) 2000-2018 the FFmpeg developers\r\n  built with gcc 7.3.1 (GCC) 20180722\r\n  configuration: --enable-gpl --enable-version3 --enable-sdl2 --enable-bzlib --enable-fontconfig --enable-gnutls --enable-iconv --enable-libass --enable-libbluray --enable-libfreetype --enable-libmp3lame --enable-libopencore-amrnb --enable-libopencore-amrwb --enable-libopenjpeg --enable-libopus --enable-libshine --enable-libsnappy --enable-libsoxr --enable-libtheora --enable-libtwolame --enable-libvpx --enable-libwavpack --enable-libwebp --enable-libx264 --enable-libx265 --enable-libxml2 --enable-libzimg --enable-lzma --enable-zlib --enable-gmp --enable-libvidstab --enable-libvorbis --enable-libvo-amrwbenc --enable-libmysofa --enable-libspeex --enable-libxvid --enable-libaom --enable-libmfx --enable-amf --enable-ffnvcodec --enable-cuvid --enable-d3d11va --enable-nvenc --enable-nvdec --enable-dxva2 --enable-avisynth\r\n  libavutil      56. 18.102 / 56. 18.102\r\n  libavcodec     58. 21.106 / 58. 21.106\r\n  libavformat    58. 17.101 / 58. 17.101\r\n  libavdevice    58.  4.101 / 58.  4.101\r\n  libavfilter     7. 26.100 /  7. 26.100\r\n  libswscale      5.  2.100 /  5.  2.100\r\n  libswresample   3.  2.100 /  3.  2.100\r\n  libpostproc    55.  2.100 / 55.  2.100\r\nInput #0, mov,mp4,m4a,3gp,3g2,mj2, from 'D:\\program_data\\python\\Super-SloMo\\path\\to\\123.mp4':\r\n  Metadata:\r\n    major_brand     : mp42\r\n    minor_version   : 0\r\n    compatible_brands: mp42mp41isomM4A\r\n    creation_time   : 2019-01-04T08:31:32.000000Z\r\n    iTunSMPB        :  00000000 00000A40 000003AC 000000000003BA14 00000000 00000000 00000000 00000000 00000000 00000000 00000000 00000000\r\n    encoder         : Nero AAC codec / 1.5.4.0\r\n  Duration: 00:00:05.16, start: 0.000000, bitrate: 3156 kb/s\r\n    Stream #0:0(und): Video: h264 (High) (avc1 / 0x31637661), yuv420p(tv), 1920x1080, 3061 kb/s, 23.98 fps, 23.98 tbr, 24k tbn, 47.95 tbc (default)\r\n    Metadata:\r\n      creation_time   : 2019-01-04T08:31:32.000000Z\r\n      handler_name    : L-SMASH Video Media Handler\r\n      encoder         : AVC Coding\r\n    Stream #0:1(und): Audio: aac (LC) (mp4a / 0x6134706D), 48000 Hz, stereo, fltp, 132 kb/s (default)\r\n    Metadata:\r\n      creation_time   : 2019-01-04T08:31:32.000000Z\r\n      handler_name    : Sound Media Handler\r\nStream mapping:\r\n  Stream #0:0 -> #0:0 (h264 (native) -> mjpeg (native))\r\nPress [q] to stop, [?] for help\r\n[swscaler @ 00000194fd361f80] deprecated pixel format used, make sure you did set range correctly\r\nOutput #0, image2, to 'tmpSuperSloMo\\input/%06d.jpg':\r\n  Metadata:\r\n    major_brand     : mp42\r\n    minor_version   : 0\r\n    compatible_brands: mp42mp41isomM4A\r\n    iTunSMPB        :  00000000 00000A40 000003AC 000000000003BA14 00000000 00000000 00000000 00000000 00000000 00000000 00000000 00000000\r\n    encoder         : Lavf58.17.101\r\n    Stream #0:0(und): Video: mjpeg, yuvj420p(pc), 1920x1080, q=2-31, 200 kb/s, 23.98 fps, 23.98 tbn, 23.98 tbc (default)\r\n    Metadata:\r\n      creation_time   : 2019-01-04T08:31:32.000000Z\r\n      handler_name    : L-SMASH Video Media Handler\r\n      encoder         : Lavc58.21.106 mjpeg\r\n    Side data:\r\n      cpb: bitrate max/min/avg: 0/0/200000 buffer size: 0 vbv_delay: -1\r\nframe=  122 fps=0.0 q=2.0 Lsize=N/A time=00:00:05.08 bitrate=N/A speed=6.92x\r\nvideo:28266kB audio:0kB subtitle:0kB other streams:0kB global headers:0kB muxing overhead: unknown\r\nTraceback (most recent call last):\r\n  File \"video_to_slomo.py\", line 209, in <module>\r\n    main()\r\n  File \"video_to_slomo.py\", line 158, in main\r\n    flowOut = flowComp(torch.cat((I0, I1), dim=1))\r\n  File \"C:\\Program Files (x86)\\Microsoft Visual Studio\\Shared\\Python36_64\\lib\\site-packages\\torch\\nn\\modules\\module.py\", line 477, in __call__\r\n    result = self.forward(*input, **kwargs)\r\n  File \"D:\\program_data\\python\\Super-SloMo\\model.py\", line 199, in forward\r\n    s2 = self.down1(s1)\r\n  File \"C:\\Program Files (x86)\\Microsoft Visual Studio\\Shared\\Python36_64\\lib\\site-packages\\torch\\nn\\modules\\module.py\", line 477, in __call__\r\n    result = self.forward(*input, **kwargs)\r\n  File \"D:\\program_data\\python\\Super-SloMo\\model.py\", line 71, in forward\r\n    x = F.leaky_relu(self.conv2(x), negative_slope = 0.1)\r\n  File \"C:\\Program Files (x86)\\Microsoft Visual Studio\\Shared\\Python36_64\\lib\\site-packages\\torch\\nn\\modules\\module.py\", line 477, in __call__\r\n    result = self.forward(*input, **kwargs)\r\n  File \"C:\\Program Files (x86)\\Microsoft Visual Studio\\Shared\\Python36_64\\lib\\site-packages\\torch\\nn\\modules\\conv.py\", line 301, in forward\r\n    self.padding, self.dilation, self.groups)\r\nRuntimeError: CUDA error: out of memory\r\n```\r\nmy GPU is GTX 1060","closed_by":{"login":"avinashpaliwal","id":43282710,"node_id":"MDQ6VXNlcjQzMjgyNzEw","avatar_url":"https://avatars.githubusercontent.com/u/43282710?v=4","gravatar_id":"","url":"https://api.github.com/users/avinashpaliwal","html_url":"https://github.com/avinashpaliwal","followers_url":"https://api.github.com/users/avinashpaliwal/followers","following_url":"https://api.github.com/users/avinashpaliwal/following{/other_user}","gists_url":"https://api.github.com/users/avinashpaliwal/gists{/gist_id}","starred_url":"https://api.github.com/users/avinashpaliwal/starred{/owner}{/repo}","subscriptions_url":"https://api.github.com/users/avinashpaliwal/subscriptions","organizations_url":"https://api.github.com/users/avinashpaliwal/orgs","repos_url":"https://api.github.com/users/avinashpaliwal/repos","events_url":"https://api.github.com/users/avinashpaliwal/events{/privacy}","received_events_url":"https://api.github.com/users/avinashpaliwal/received_events","type":"User","site_admin":false},"reactions":{"url":"https://api.github.com/repos/avinashpaliwal/Super-SloMo/issues/14/reactions","total_count":0,"+1":0,"-1":0,"laugh":0,"hooray":0,"confused":0,"heart":0,"rocket":0,"eyes":0},"timeline_url":"https://api.github.com/repos/avinashpaliwal/Super-SloMo/issues/14/timeline","performed_via_github_app":null,"state_reason":"completed"}